<?xml version="1.0" encoding="UTF-8" standalone="no"?>
<!-- Created with Inkscape (http://www.inkscape.org/) -->

<svg
   width="219.99998mm"
   height="219.99998mm"
   viewBox="0 0 219.99998 219.99998"
   version="1.1"
   id="svg5"
   xml:space="preserve"
   xmlns="http://www.w3.org/2000/svg"
   xmlns:svg="http://www.w3.org/2000/svg"><defs
     id="defs2" /><g
     id="layer1"><path
       style="fill:#9c2a1d;stroke-width:0.264583"
       d="m 91.13438,202.71004 c -2.01835,-1.06766 -3.04271,-2.74848 -3.04271,-4.99259 0,-0.81573 0.12928,-1.72471 0.28729,-2.01995 0.25988,-0.48558 0.22831,-0.51749 -0.33073,-0.33433 -1.2587,0.4124 -6.3567,0.18172 -8.49831,-0.38454 -7.4664,-1.97419 -15.1533,-8.22386 -22.3961,-18.20867 -1.66079,-2.28956 -2.02887,-2.65972 -2.43078,-2.44462 -2.43298,1.30209 -9.77953,-0.29018 -15.37846,-3.33308 -1.48934,-0.80943 -3.18559,-1.57857 -3.76946,-1.70921 -1.54997,-0.34679 -2.51678,-1.52796 -2.51678,-3.0748 0,-1.03442 0.13688,-1.34978 0.93015,-2.14305 0.90323,-0.90324 0.97926,-0.92702 2.62806,-0.82203 1.47005,0.0936 2.2063,0.3642 5.486,2.01631 3.53024,1.77831 8.12384,3.39721 9.03417,3.18386 0.26747,-0.0627 -0.21668,-1.12526 -1.69305,-3.71574 -3.83059,-6.72128 -6.33116,-11.77145 -6.33116,-12.78647 0,-1.33354 0.61488,-2.35811 1.73386,-2.8891 1.18231,-0.56105 2.56697,-0.36449 3.41643,0.48497 0.32629,0.32629 1.62433,2.61035 2.88454,5.0757 1.26021,2.46534 2.87518,5.48797 3.58883,6.71696 l 1.29754,2.23452 0.18859,-1.00528 c 0.2716,-1.44774 -0.0275,-5.61767 -0.5157,-7.19006 -0.22969,-0.73978 -0.77397,-1.87087 -1.20952,-2.51354 -0.97377,-1.43685 -1.23284,-2.64005 -0.7957,-3.69542 0.51455,-1.24223 1.46188,-1.8387 2.92026,-1.8387 1.65732,0 2.51156,0.71791 3.82233,3.21229 2.40371,4.57429 2.82369,9.86941 1.3012,16.40595 -0.14973,0.64284 -0.008,0.79269 1.72006,1.81935 3.08638,1.83358 5.98298,2.70656 9.45017,2.84811 1.64342,0.0671 3.72335,-0.0147 4.7007,-0.18493 1.59482,-0.27773 6.12926,-1.6746 6.43792,-1.98326 0.0705,-0.0704 -0.28821,-0.64064 -0.79703,-1.26707 -3.62469,-4.46257 -5.61256,-8.94026 -7.84703,-17.67544 l -1.25209,-4.89479 -5.27008,-0.16338 c -4.47905,-0.13885 -6.20499,-0.32472 -11.49885,-1.23831 -8.93642,-1.54222 -10.8419,-2.37643 -14.61518,-6.3985 -3.38023,-3.6031 -6.12281,-8.84302 -9.75618,-18.63999 -1.29155,-3.48251 -2.40605,-6.38962 -2.47667,-6.46024 -0.10106,-0.10106 -0.22781,36.17219 -0.25712,73.5801 l -0.004,4.56406 15.47813,0.1323 c 17.17679,0.14681 16.25478,0.0466 17.92438,1.94816 2.32148,2.64402 1.59447,6.61637 -1.53197,8.37059 l -1.17887,0.66145 -18.91771,-0.0986 c -17.49946,-0.0912 -18.98713,-0.13389 -19.84375,-0.56957 -1.08729,-0.55299 -1.885611,-1.37844 -2.490481,-2.57511 -0.39922,-0.78982 -0.43472,-4.36068 -0.42402,-42.648 0.007,-26.77607 0.10699,-42.28851 0.27699,-43.18494 0.37944,-2.00077 1.336381,-3.3069 2.985271,-4.07462 2.47094,-1.15045 4.79787,-0.6354 6.59038,1.45874 l 0.95548,1.11626 -0.67026,-2.07251 c -0.78069,-2.41395 -2.48053,-8.2949 -3.27126,-11.317548 -0.30234,-1.1557 -0.83899,-2.59491 -1.19257,-3.19824 -1.7439,-2.97575 0.39059,-6.59138 3.36512,-5.70019 1.26659,0.37948 1.85008,1.13946 2.92683,3.81215 5.41101,13.431108 13.74725,22.440138 24.15373,26.103098 2.30393,0.81096 6.38422,1.83682 7.3524,1.84854 0.29392,0.004 -0.79763,-1.22242 -2.88066,-3.23542 -5.26657,-5.0895 -8.21936,-9.0009 -10.83584,-14.35365 -4.96658,-10.160588 -5.84728,-21.573438 -2.644,-34.263548 0.85952,-3.40506 2.86895,-9.14058 3.41093,-9.735836 0.88064,-0.967182 8.52281,-4.646247 12.10963,-5.829771 6.13113,-2.023054 10.24799,-2.681086 16.77087,-2.680626 6.18888,5.29e-4 11.70319,0.799976 17.18749,2.492071 1.15836,0.357394 2.146502,0.609396 2.195892,0.560009 0.18042,-0.180417 -2.415522,-5.650778 -3.964252,-8.353758 -3.12025,-5.445775 -6.64616,-9.875496 -11.93171,-14.990216 -2.18317,-2.112611 -3.6672,-3.76007 -3.7754,-4.191157 -0.28742,-1.145194 0.33163,-2.732683 1.2946,-3.319844 1.34648,-0.821 2.45923,-0.655212 5.63511,0.839571 13.141499,6.185285 23.9933,15.133908 32.04404,26.424176 4.93479,6.920505 10.12944,17.176641 10.49195,20.714951 0.45968,4.48675 2.24546,9.17247 4.78113,12.54522 2.94744,3.92046 8.13124,7.05607 14.34646,8.67798 4.22786,1.1033 11.72649,5.14903 17.15511,9.255708 14.33336,10.84297 22.0586,25.99777 23.66494,46.42414 0.43282,5.50387 -0.67435,9.52906 -1.14872,10.49837 -1.44698,2.95676 -6.55495,2.59353 -11.16296,1.41508 -3.50698,-0.89688 -5.99936,-2.23633 -9.65405,-5.18828 l -1.74037,-1.40573 -2.76652,1.18214 c -3.33972,1.42707 -6.67801,-0.20152 -10.13791,-1.53966 -2.85334,-1.45618 -5.67694,-2.34128 -5.37036,-5.93866 0.17291,-1.53402 1.16743,-2.57803 2.83747,-2.97867 1.65645,-0.39738 2.71583,-0.10262 6.23558,1.73495 1.51698,0.79198 3.00379,1.43996 3.30401,1.43996 0.47865,0 0.40096,-0.1883 -0.63098,-1.52939 -1.80259,-2.3426 -5.27174,-7.75353 -5.62213,-8.76899 -0.20067,-0.58156 -0.23075,-1.19076 -0.084,-1.70227 0.12565,-0.43813 0.1909,-0.83414 0.145,-0.88004 -0.1925,-0.19251 -6.86909,1.80368 -9.43249,2.82017 -16.21255,6.42887 -26.89249,18.95485 -32.41766,38.02106 -0.36039,1.24364 -0.92271,2.95628 -1.21557,3.54172 -0.56031,1.1201 -0.56672,0.9511 -1.3217,2.1921 -0.45413,0.74647 -1.24405,2.18965 -2.31607,3.45769 -2.08312,2.46402 -5.648917,5.72467 -7.747525,7.08453 -0.705635,0.45724 -1.250205,0.86412 -1.210145,0.90418 0.0401,0.0401 21.33485,7.9e-4 47.32178,-0.087 l 47.24896,-0.15985 -0.13111,-11.81146 c -0.14721,-13.26076 -0.19575,-12.86363 1.79166,-14.65913 2.10181,-1.89886 5.62094,-1.71047 7.59777,0.40674 1.39306,1.49199 1.39791,1.54293 1.66832,17.53423 0.18617,11.00907 0.17368,15.14719 -0.0477,15.8001 -0.47104,1.3894 -1.21056,2.2782 -2.55136,3.06638 l -1.23948,0.72863 -53.04895,0.057 c -48.00659,0.0516 -53.12439,0.0171 -53.84269,-0.36291 z m -3.71176,-13.72002 c 2.03385,-0.43082 5.00793,-1.74888 6.95135,-3.08069 1.31126,-0.89861 6.41768,-5.71537 6.41768,-6.05364 0,-0.10664 -0.67137,-0.46638 -1.491924,-0.79942 -0.820567,-0.33304 -3.398516,-1.64042 -5.728806,-2.90529 l -4.23687,-2.29975 -2.40713,1.1384 c -6.41237,3.03261 -13.79109,3.82798 -19.80939,2.1353 l -2.32101,-0.6528 1.30945,1.49796 c 1.82811,2.09127 5.44389,5.58548 7.12811,6.88843 2.72192,2.10575 5.49238,3.43159 8.63988,4.13471 2.09745,0.46854 3.32496,0.46784 5.54866,-0.003 z m 17.67947,-18.88814 c 4.12445,-12.41865 10.03019,-21.61611 18.8406,-29.34187 l 1.85209,-1.62408 -1.13544,-2.23279 c -0.62449,-1.22804 -2.21386,-4.11651 -3.53192,-6.41883 -12.41798,-21.69097 -29.58351,-39.978118 -51.55658,-54.925318 -4.91534,-3.34366 -14.9946,-9.4649 -15.58495,-9.4649 -0.2666,0 -1.65867,4.98022 -2.25567,8.06979 -2.58311,13.36811 0.26561,24.91801 8.60704,34.896488 3.60848,4.31665 9.35228,9.09828 14.85207,12.36413 3.28032,1.9479 3.19305,1.80212 3.27073,5.4632 0.15883,7.48635 0.9904,13.79373 2.76374,20.96264 1.94587,7.86642 3.04673,10.7143 5.61211,14.51819 2.58542,3.83363 4.23859,5.23477 9.72243,8.24018 3.66705,2.00975 6.16165,3.15345 6.90231,3.16452 0.30649,0.005 0.7502,-0.98785 1.64144,-3.67135 z M 60.22707,92.293412 c -1.18831,-0.37269 -2.52078,-1.53317 -3.13792,-2.73288 -0.86405,-1.67969 -0.98595,-4.76382 -0.24565,-6.21493 1.22586,-2.40289 5.28369,-3.547 7.46269,-2.10412 1.19699,0.79262 2.61882,3.57484 2.61882,5.12449 0,2.15567 -1.34658,4.70867 -2.91391,5.52452 -0.91321,0.47536 -2.88397,0.68521 -3.78403,0.40292 z m 121.43021,57.872038 c -0.22592,-4.77572 -0.99867,-10.10191 -2.09226,-14.42083 l -0.85392,-3.3724 -3.3787,-0.2371 c -1.85828,-0.13041 -3.452,-0.1638 -3.5416,-0.0742 -0.0896,0.0896 0.0792,0.73207 0.37502,1.42773 0.93522,2.19898 1.50922,5.31182 1.47732,8.01169 -0.0359,3.03926 -0.42865,4.22641 -2.20257,6.65769 l -1.30233,1.78492 0.97931,0.75816 c 2.80362,2.17049 5.61022,3.22102 8.62683,3.22907 1.94343,-0.88965 2.06898,-0.4649 1.9129,-3.76431 z m -14.72647,-6.66694 c 0.9349,-1.93124 0.50255,-5.08918 -1.23173,-8.99677 l -1.0095,-2.27456 -1.05886,0.13161 c -0.58237,0.0724 -2.33878,0.27118 -3.90313,0.44175 -1.56435,0.17057 -2.84427,0.33811 -2.84427,0.37231 0,0.26554 5.70383,8.61051 6.98229,10.21542 1.4896,1.86996 1.65253,1.99755 2.07301,1.62331 0.25099,-0.22339 0.69747,-0.90427 0.99219,-1.51307 z m -94.17593,-7.20426 c -0.16769,-1.57504 -0.38715,-4.15153 -0.48769,-5.72555 l -0.18281,-2.86184 -3.70417,-0.0997 c -11.48932,-0.30912 -21.23763,-3.978 -28.59912,-10.76359 -0.64157,-0.59138 -1.1665,-1.02055 -1.1665,-0.9537 0,0.33053 2.24942,6.39501 2.97314,8.01564 2.0248,4.53413 3.96949,7.604 6.28728,9.925 2.75443,2.75825 3.01628,2.86228 10.42905,4.14316 4.25374,0.73501 6.64622,1.00113 10.07615,1.12078 2.47386,0.0863 4.53879,0.13587 4.58874,0.11017 0.0499,-0.0257 -0.0464,-1.33538 -0.21407,-2.91041 z m 67.82048,-5.23563 c 8.45508,-3.31567 17.12345,-4.86344 28.54494,-5.0968 4.84854,-0.0991 6.81302,-0.22632 6.81302,-0.44132 0,-0.538 -2.99521,-5.66728 -4.75874,-8.14931 -2.09098,-2.9429 -6.22025,-7.31364 -9.10871,-9.64138 -5.21711,-4.20434 -12.39646,-8.232018 -17.09515,-9.590528 -6.80419,-1.96726 -11.4114,-4.58427 -15.50075,-8.80483 -3.86992,-3.99409 -6.08877,-8.46202 -7.44879,-14.99905 l -0.45974,-2.20974 -10.84791,-5.48486 c -8.81583,-4.45741 -11.549654,-5.71503 -14.59402,-6.71353 -12.71634,-4.170727 -24.41109,-3.948036 -35.47683,0.67555 l -1.91669,0.80085 4.43024,2.62905 c 20.82974,12.36109 38.2806,27.79198 52.0015,45.982208 5.22351,6.92496 12.20759,18.03767 15.15166,24.10852 l 0.72095,1.48664 3.20305,-1.66027 c 1.76168,-0.91314 4.61557,-2.21418 6.34197,-2.8912 z M 78.91441,70.382412 c -2.02156,-0.72391 -3.40436,-1.74315 -4.19476,-3.09185 -1.78317,-3.04276 -0.83544,-6.26318 2.24409,-7.62541 1.55572,-0.688186 4.80465,-0.718989 6.11281,-0.058 1.26661,0.64003 2.31627,1.66624 2.98165,2.91502 0.43898,0.82387 0.56549,1.53163 0.57108,3.1947 0.006,1.94066 -0.0611,2.22594 -0.73804,3.1143 -1.08818,1.42799 -1.77027,1.77237 -3.79252,1.91485 -1.35201,0.0953 -2.1607,0.003 -3.18431,-0.36365 z m 38.25243,-8.72009 c -3.89876,-6.884426 -7.7045,-11.993038 -12.63559,-16.96131 -2.02167,-2.03691 -7.005025,-6.388171 -7.31616,-6.388171 -0.0643,0 0.401295,0.803672 1.034652,1.785937 2.600018,4.032295 5.396058,9.963232 6.937418,14.71562 l 0.761,2.346349 5.95456,2.997275 c 3.27501,1.6485 5.99306,3.00366 6.04012,3.01146 0.0471,0.008 -0.30214,-0.67042 -0.776,-1.50716 z m 77.45592,67.544208 c -1.26449,-0.45078 -2.42877,-1.53159 -3.13982,-2.91471 -0.54107,-1.05248 -0.5414,-1.09048 -0.41577,-48.442098 L 191.1929,30.46094 176.50809,30.285849 c -8.07665,-0.0963 -25.06541,-0.175091 -37.75281,-0.175091 -16.54157,0 -23.32245,-0.08519 -23.96737,-0.301123 -2.34763,-0.786015 -3.75978,-2.77054 -3.7635,-5.288927 -0.004,-2.560506 1.56024,-4.570342 4.09707,-5.264894 0.64242,-0.175886 14.86191,-0.19706 42.24464,-0.06291 l 41.27626,0.202223 1.14703,0.805499 c 0.63087,0.443024 1.42001,1.299286 1.75366,1.902802 l 0.60662,1.097303 -0.0359,46.780521 c -0.0197,25.72929 -0.11412,48.872968 -0.20975,51.430378 -0.16677,4.45999 -0.20285,4.69361 -0.88371,5.72216 -0.83561,1.26234 -3.0162,2.46621 -4.43534,2.44868 -0.51713,-0.006 -1.40014,-0.17557 -1.96225,-0.37595 z M 22.77014,85.805252 c -0.63804,-0.19897 -1.55617,-0.74569 -2.0403,-1.21493 -1.817211,-1.7613 -1.694421,0.65447 -1.694421,-33.335493 0,-30.666475 0.002,-30.770301 0.55293,-31.908774 0.68935,-1.424005 2.061831,-2.577497 3.568891,-2.999447 0.89835,-0.251523 5.9751,-0.272122 22.83618,-0.09266 l 21.68102,0.230765 1.14664,0.797289 c 3.39231,2.358768 3.04696,7.529899 -0.62876,9.414919 -0.93729,0.480671 -1.8173,0.503418 -19.47541,0.503418 H 30.22315 l -0.19642,27.313003 c -0.16888,23.48215 -0.25274,27.45374 -0.59793,28.31646 -0.56195,1.40446 -2.2246,2.75 -3.82118,3.09241 -1.54408,0.33114 -1.3787,0.33796 -2.83748,-0.11696 z"
       id="path7702" /></g></svg>
