<!--?xml version="1.0" encoding="utf-8"?-->
<!-- Generator: Adobe Illustrator 18.1.1, SVG Export Plug-In . SVG Version: 6.00 Build 0)  -->

<svg version="1.1" id="_x32_" xmlns="http://www.w3.org/2000/svg" xmlns:xlink="http://www.w3.org/1999/xlink" x="0px" y="0px" viewBox="0 0 512 512" style="width: 256px; height: 256px; opacity: 1;" xml:space="preserve">
<style type="text/css">
	.st0{fill:#4B4B4B;}
</style>
<g>
	<path class="st0" d="M272.87,123.342c22.454,4.698,44.502-9.696,49.208-32.174c4.714-22.47-9.696-44.503-32.15-49.216
		c-22.494-4.706-44.527,9.687-49.233,32.166C235.989,96.587,250.392,118.619,272.87,123.342z" style="fill: rgb(75, 75, 75);"></path>
	<path class="st0" d="M509.257,456.493l-91.192-123.511c-5.524-7.477-13.794-6.99-18.395,1.093l-18.509,32.587
		c-2.543,4.48-6.456,6.724-10.514,6.78l-65.481-52.926c2.398-3.726,3.329-8.376,2.074-12.992L287.434,178.05
		c-2.819-16.905-15.958-33.324-47.176-49.055L145.64,84.623c-10.303-4.276-17.204-2.398-25.742,4.472L66.34,136.982
		c-7.152,5.346-8.618,15.488-3.272,22.64c3.718,4.982,9.753,7.136,15.503,6.221l1.71-2.098L332.106,367.27l-58.45,88.705
		c-5.119,7.768-1.693,14.126,7.598,14.126h221.142C511.695,470.101,514.781,463.97,509.257,456.493z M146.775,192.517L99.38,154.219
		l36.986-23.49l32.757,23.385L146.775,192.517z M220.421,252.029l24.762-37.358l23.158,76.085L220.421,252.029z" style="fill: rgb(75, 75, 75);"></path>
	<path class="st0" d="M249.979,318.669l-46.349-41.311l0.81-1.223l-72.31-58.442L3.644,438.536
		c-6.447,9.323-4.115,22.105,5.216,28.56c9.324,6.44,22.122,4.115,28.562-5.216l114.804-141.558l55.454,33.713
		c0,0-25.791,90.544-26.131,91.669c-3.094,10.376,2.795,21.304,13.171,24.406c10.368,3.11,21.287-2.786,24.406-13.171l39.197-97.186
		C264.996,343.091,263.117,329.945,249.979,318.669z" style="fill: rgb(75, 75, 75);"></path>
</g>
</svg>
